<svg width="45" height="49" viewBox="0 0 45 49" fill="none" xmlns="http://www.w3.org/2000/svg">
<path id="Vector 1" d="M14.8519 4.67438C14.1525 4.49825 13.286 4.45717 12.3886 4.67438M22.8 20.9318C17.8048 24.3012 7.68206 28.1928 7.15219 16.8042C6.75527 8.27323 9.70946 5.32283 12.3886 4.67438M22.8 20.9318C12.3886 36.431 12.1198 38.4526 5.16517 39.1265C-0.398492 39.6656 9.3048 42.7767 14.8519 44.2649C23.2692 46.8481 40.3687 48.4935 41.4284 34.4094C42.4882 20.3253 31.5203 10.9639 25.9038 8.04378M22.8 20.9318C24.765 17.8495 27.3131 12.0642 25.9038 8.04378M12.3886 4.67438C13.2097 3.41085 16.4415 1.64192 22.8 4.67438C24.4424 5.45765 25.4131 6.64369 25.9038 8.04378" stroke="white" stroke-width="6"/>
</svg>
