<svg width="25" height="24" viewBox="0 0 25 24" fill="none" xmlns="http://www.w3.org/2000/svg">
<path fill-rule="evenodd" clip-rule="evenodd" d="M12.5 0C5.87527 0 0.5 5.37527 0.5 12C0.5 18.6248 5.87527 24 12.5 24C19.1117 24 24.5 18.6248 24.5 12C24.5 5.37527 19.1117 0 12.5 0ZM20.4262 5.53145C21.8579 7.27549 22.717 9.50107 22.743 11.9089C22.4046 11.8439 19.0206 11.154 15.6106 11.5835C15.5325 11.4143 15.4675 11.2321 15.3894 11.0499C15.1811 10.5554 14.9469 10.0477 14.7126 9.56618C18.4869 8.0304 20.205 5.81779 20.4262 5.53145ZM12.5 1.77007C15.103 1.77007 17.4848 2.74621 19.2939 4.34707C19.1117 4.60738 17.5629 6.67679 13.9186 8.04338C12.2397 4.95878 10.3786 2.43384 10.0922 2.04338C10.8601 1.86117 11.6671 1.77007 12.5 1.77007ZM8.13995 2.73319C8.41325 3.09761 10.2354 5.63558 11.9404 8.65508C7.15076 9.9306 2.92083 9.90458 2.46529 9.90458C3.12907 6.72885 5.27657 4.08676 8.13995 2.73319ZM2.24404 12.0131C2.24404 11.9089 2.24404 11.8048 2.24404 11.7007C2.68655 11.7136 7.65835 11.7787 12.7733 10.243C13.0727 10.8156 13.346 11.4013 13.6063 11.9869C13.4761 12.026 13.3329 12.0651 13.2028 12.1041C7.91865 13.8091 5.10738 18.4685 4.8731 18.859C3.2462 17.0499 2.24404 14.6421 2.24404 12.0131ZM12.5 22.256C10.1312 22.256 7.94469 21.449 6.21367 20.0954C6.39588 19.718 8.47827 15.7094 14.257 13.692C14.283 13.679 14.2961 13.679 14.3221 13.666C15.7668 17.4013 16.3525 20.5379 16.5087 21.436C15.2722 21.9696 13.9186 22.256 12.5 22.256ZM18.2136 20.4989C18.1096 19.8742 17.5629 16.8807 16.2223 13.1974C19.4371 12.6898 22.2484 13.5228 22.5998 13.6399C22.1573 16.4902 20.5173 18.9501 18.2136 20.4989Z" fill="white"/>
</svg>
