<svg width="25" height="24" viewBox="0 0 25 24" fill="none" xmlns="http://www.w3.org/2000/svg">
<path d="M18.2705 10.0969C18.819 8.56875 20.3986 4.14844 20.3986 2.73281C20.3986 1.48594 19.6627 0.440625 18.3502 0.440625C16.2596 0.440625 14.3846 6.61406 13.7986 8.08594C13.344 6.75 11.2158 0 9.34083 0C7.88301 0 7.19864 1.07344 7.19864 2.42344C7.19864 4.07812 8.80176 8.36719 9.38301 10.0172C9.0877 9.90938 8.76895 9.81562 8.44551 9.81562C7.34864 9.81562 6.18145 11.1797 6.18145 12.2812C6.18145 12.6984 6.41114 13.2844 6.55645 13.6734C4.82676 14.1422 4.16114 15.2953 4.16114 17.0344C4.15645 20.4187 7.3627 24 11.8721 24C17.4033 24 20.844 19.8469 20.844 14.4891C20.844 12.4688 20.5205 10.6453 18.2705 10.0969ZM16.6111 5.0625C16.7986 4.48594 17.6002 2.04844 18.3502 2.04844C18.7533 2.04844 18.8611 2.46563 18.8611 2.79844C18.8611 3.69375 17.0518 8.63906 16.6533 9.73594L15.0596 9.45469L16.6111 5.0625ZM8.67051 2.26406C8.67051 1.70625 9.3502 0.121875 10.8408 4.47188L12.4627 9.17344C11.7315 9.1125 11.1643 9.03281 10.8033 9.23906C10.2924 7.88906 8.67051 3.62812 8.67051 2.26406ZM8.5627 11.4375C9.93614 11.4375 11.708 15.8719 11.708 16.4719C11.708 16.7109 11.4783 17.0062 11.2111 17.0062C10.2315 17.0062 7.60645 13.4016 7.60645 12.4266C7.61114 12.0656 8.20176 11.4375 8.5627 11.4375ZM17.2018 20.1703C15.8377 21.6703 14.094 22.4484 12.0596 22.4484C9.2752 22.4484 7.07676 20.9203 6.01739 18.3094C5.21583 16.275 6.19551 15.1078 6.98301 15.1078C7.51739 15.1078 9.52833 17.9344 9.52833 18.5344C9.52833 18.7641 9.16739 18.9234 8.97989 18.9234C8.2252 18.9234 7.92989 18.1969 6.58458 16.5141C5.19239 17.9062 7.54551 20.5875 9.31739 20.5875C10.5408 20.5875 11.3377 19.4531 11.0986 18.6188C11.2721 18.6188 11.4877 18.6328 11.6471 18.5906C11.6986 19.8609 12.0736 21.375 13.6018 21.4828C13.6018 21.4406 13.6955 21.15 13.6955 21.1359C13.6955 20.3203 13.1986 19.6078 13.1986 18.7781C13.1986 17.4516 14.2158 16.1672 15.2471 15.4172C15.6221 15.1359 16.0768 14.9625 16.5174 14.8031C16.9721 14.6297 17.4549 14.4281 17.8018 14.0812C17.7502 13.5562 17.5346 13.0922 17.0096 13.0922C15.7111 13.0922 11.3565 13.2797 11.3565 11.2313C11.3565 10.9172 11.3611 10.6172 12.1721 10.6172C13.6861 10.6172 17.5299 10.9922 18.6549 11.9813C19.5033 12.7359 19.794 17.2875 17.2018 20.1703ZM12.5799 14.2641C13.0346 14.4094 13.5033 14.4516 13.9721 14.5453C13.6252 14.7984 13.3158 15.1078 13.0205 15.4406C12.8893 15.0422 12.7299 14.6531 12.5799 14.2641Z" fill="white"/>
</svg>
