<svg width="44" height="49" viewBox="0 0 44 49" fill="none" xmlns="http://www.w3.org/2000/svg">
<path d="M14.3519 4.67438C13.6525 4.49825 12.786 4.45717 11.8886 4.67438M22.3 20.9318C17.3048 24.3012 7.18206 28.1928 6.65219 16.8042C6.25527 8.27323 9.20946 5.32283 11.8886 4.67438M22.3 20.9318C11.8886 36.431 11.6198 38.4526 4.66517 39.1265C-0.898492 39.6656 8.8048 42.7767 14.3519 44.2649C22.7692 46.8481 39.8687 48.4935 40.9284 34.4094C41.9882 20.3253 31.0203 10.9639 25.4038 8.04378M22.3 20.9318C24.265 17.8495 26.8131 12.0642 25.4038 8.04378M11.8886 4.67438C12.7097 3.41085 15.9415 1.64192 22.3 4.67438C23.9424 5.45765 24.9131 6.64369 25.4038 8.04378" stroke="#008000" stroke-opacity="0.9" stroke-width="6"/>
</svg>
