<svg width="48" height="48" viewBox="0 0 48 48" fill="none" xmlns="http://www.w3.org/2000/svg">
<path d="M22.5463 7.37401C22.3659 7.18307 22.2248 6.95846 22.1312 6.713C22.0375 6.46754 21.9932 6.20605 22.0006 5.94344C22.008 5.68084 22.0671 5.42227 22.1745 5.1825C22.2818 4.94272 22.4353 4.72645 22.6263 4.54601C22.8172 4.36557 23.0418 4.22451 23.2873 4.13088C23.5328 4.03725 23.7943 3.99288 24.0569 4.00031C24.3195 4.00774 24.578 4.06682 24.8178 4.17418C25.0576 4.28153 25.2739 4.43507 25.4543 4.62601L42.4543 22.626C42.8054 22.9973 43.001 23.489 43.001 24C43.001 24.511 42.8054 25.0027 42.4543 25.374L25.4543 43.376C25.275 43.5711 25.0588 43.7287 24.8182 43.8395C24.5775 43.9504 24.3172 44.0123 24.0524 44.0217C23.7877 44.0311 23.5236 43.9878 23.2757 43.8943C23.0278 43.8008 22.8009 43.659 22.6083 43.4771C22.4157 43.2952 22.2611 43.0768 22.1535 42.8347C22.046 42.5925 21.9877 42.3314 21.9819 42.0665C21.9761 41.8016 22.0231 41.5382 22.1199 41.2916C22.2168 41.045 22.3618 40.8201 22.5463 40.63L38.2503 24L22.5463 7.37401Z" fill="white" stroke="white" stroke-width="2"/>
</svg>
