<svg width="32" height="32" viewBox="0 0 32 32" fill="none" xmlns="http://www.w3.org/2000/svg">
<path d="M16 28L15.8666 27.7999C14.9404 26.4106 14.4773 25.716 13.8655 25.2131C13.3238 24.7679 12.6997 24.4339 12.0288 24.2301C11.271 24 10.4361 24 8.76642 24H6.93332C5.43985 24 4.69311 24 4.12268 23.7094C3.62092 23.4537 3.21297 23.0457 2.95731 22.544C2.66666 21.9735 2.66666 21.2268 2.66666 19.7333V8.26667C2.66666 6.77319 2.66666 6.02646 2.95731 5.45603C3.21297 4.95426 3.62092 4.54631 4.12268 4.29065C4.69311 4 5.43985 4 6.93332 4H7.46666C10.4536 4 11.9471 4 13.0879 4.5813C14.0915 5.09262 14.9074 5.90852 15.4187 6.91205C16 8.05291 16 9.54639 16 12.5333M16 28V12.5333M16 28L16.1334 27.7999C17.0596 26.4106 17.5227 25.716 18.1345 25.2131C18.6762 24.7679 19.3003 24.4339 19.9712 24.2301C20.729 24 21.5638 24 23.2336 24H25.0667C26.5601 24 27.3069 24 27.8773 23.7094C28.3791 23.4537 28.787 23.0457 29.0427 22.544C29.3333 21.9735 29.3333 21.2268 29.3333 19.7333V8.26667C29.3333 6.77319 29.3333 6.02646 29.0427 5.45603C28.787 4.95426 28.3791 4.54631 27.8773 4.29065C27.3069 4 26.5601 4 25.0667 4H24.5333C21.5464 4 20.0529 4 18.912 4.5813C17.9085 5.09262 17.0926 5.90852 16.5813 6.91205C16 8.05291 16 9.54639 16 12.5333" stroke="white" stroke-width="1.66667" stroke-linecap="round" stroke-linejoin="round"/>
</svg>
