<svg width="32" height="32" viewBox="0 0 32 32" fill="none" xmlns="http://www.w3.org/2000/svg">
<path d="M9.33333 12V8.00004C9.33333 7.2928 9.61428 6.61452 10.1144 6.11442C10.6145 5.61433 11.2928 5.33337 12 5.33337H25.3333C26.0406 5.33337 26.7189 5.61433 27.219 6.11442C27.719 6.61452 28 7.2928 28 8.00004V24C28 24.7073 27.719 25.3856 27.219 25.8857C26.7189 26.3858 26.0406 26.6667 25.3333 26.6667H17.3333M17.3333 26.6667V18.4374C17.3332 17.7302 17.0521 17.052 16.552 16.552L12.552 12.552C12.0519 12.0521 11.3738 11.7713 10.6667 11.7713C9.95956 11.7713 9.28141 12.0521 8.78133 12.552L4.78133 16.552C4.2812 17.052 4.00015 17.7302 4 18.4374V24C4 24.7073 4.28095 25.3856 4.78105 25.8857C5.28115 26.3858 5.95942 26.6667 6.66667 26.6667H10.6667M17.3333 26.6667H10.6667M10.6667 26.6667V21.3334M17.3347 10.6667H17.3333" stroke="white" stroke-width="2" stroke-linecap="round" stroke-linejoin="round"/>
</svg>
