<svg width="32" height="32" viewBox="0 0 32 32" fill="none" xmlns="http://www.w3.org/2000/svg">
<path d="M16 21.3333V28M16 21.3333L24 28M16 21.3333L8.00001 28M10.6667 9.33333V16M16 12V16M21.3333 14.6667V16M29.3333 4H2.66667M4.00001 4H28V14.9333C28 17.1735 28 18.2936 27.564 19.1493C27.1805 19.9019 26.5686 20.5139 25.816 20.8974C24.9603 21.3333 23.8402 21.3333 21.6 21.3333H10.4C8.1598 21.3333 7.03969 21.3333 6.18404 20.8974C5.43139 20.5139 4.81947 19.9019 4.43598 19.1493C4.00001 18.2936 4.00001 17.1735 4.00001 14.9333V4Z" stroke="white" stroke-width="1.66667" stroke-linecap="round" stroke-linejoin="round"/>
</svg>
