<svg width="32" height="32" viewBox="0 0 32 32" fill="none" xmlns="http://www.w3.org/2000/svg">
<path d="M4 0H28V32H4V0ZM26 30V2H6V30H26ZM24 8V10H16V8H24ZM24 16V18H16V16H24ZM24 24V26H16V24H24ZM14.7031 6.70312L11 10.4062L8.29688 7.70312L9.70312 6.29688L11 7.59375L13.2969 5.29688L14.7031 6.70312ZM14.7031 14.7031L11 18.4062L8.29688 15.7031L9.70312 14.2969L11 15.5938L13.2969 13.2969L14.7031 14.7031ZM14.7031 22.7031L11 26.4062L8.29688 23.7031L9.70312 22.2969L11 23.5938L13.2969 21.2969L14.7031 22.7031Z" fill="white"/>
</svg>
