<svg width="32" height="32" viewBox="0 0 32 32" fill="none" xmlns="http://www.w3.org/2000/svg">
<path d="M24 21.1158C25.9412 22.091 27.6055 23.6559 28.8203 25.6128C29.0609 26.0004 29.1812 26.1941 29.2228 26.4624C29.3073 27.0077 28.9344 27.678 28.4266 27.8938C28.1767 28 27.8956 28 27.3333 28M21.3333 15.3763C23.309 14.3945 24.6667 12.3558 24.6667 10C24.6667 7.64419 23.309 5.60548 21.3333 4.62368M18.6667 10C18.6667 13.3137 15.9804 16 12.6667 16C9.35296 16 6.66667 13.3137 6.66667 10C6.66667 6.68629 9.35296 4 12.6667 4C15.9804 4 18.6667 6.68629 18.6667 10ZM3.41231 25.2511C5.53805 22.0594 8.8925 20 12.6667 20C16.4408 20 19.7953 22.0594 21.921 25.2511C22.3867 25.9503 22.6196 26.2999 22.5928 26.7466C22.5719 27.0943 22.3439 27.52 22.0661 27.7301C21.7092 28 21.2184 28 20.2369 28H5.09648C4.11489 28 3.6241 28 3.26725 27.7301C2.9894 27.52 2.76145 27.0943 2.74058 26.7466C2.71377 26.2999 2.94662 25.9503 3.41231 25.2511Z" stroke="white" stroke-width="1.66667" stroke-linecap="round" stroke-linejoin="round"/>
</svg>
