<svg width="80" height="80" viewBox="0 0 80 80" fill="none" xmlns="http://www.w3.org/2000/svg">
<path d="M73.2078 36.8797H75.9375V43.1203H73.2078V36.8797ZM67.8288 44.9475H70.5584V35.0525H67.8288V44.9475ZM62.54 50.0656H65.2697V29.9344H62.54V50.0656ZM57.5123 54.015H60.242V26.1692H57.5123V54.0083V54.015ZM52.1298 47.2148H54.8595V32.7852H52.1298V47.2148ZM46.662 58.1334H49.3917V21.2491H46.6534V58.1334H46.662ZM41.2812 63.4219H44.0109V16.5781H41.2812V63.4219ZM35.9925 56.19H38.7222V23.8098H35.9925V56.1902V56.19ZM30.5212 46.9947H33.2509V33.3463H30.5212V46.9947ZM25.2327 43.7411H27.9623V36.2469H25.2327V43.7534V43.7411ZM19.9439 47.7505H22.6736V32.2442H19.9439V47.7555V47.7505ZM14.7405 55.2567H17.4702V23.8559H14.7406V55.2622L14.7405 55.2567ZM9.45188 50.4595H12.1816V29.2708H9.45188V50.4648V50.4595ZM4.0625 44.9475H6.79219V35.0525H4.0625V44.9475Z" fill="#008000" fill-opacity="0.9"/>
</svg>
